<mxfile host="app.diagrams.net" modified="2023-10-09T17:01:42.694Z" agent="Mozilla/5.0 (X11; Ubuntu; Linux x86_64; rv:109.0) Gecko/20100101 Firefox/118.0" etag="9dkfNZPnq81GEliLvns7" version="22.0.4" type="device">
  <diagram id="C5RBs43oDa-KdzZeNtuy" name="Page-1">
    <mxGraphModel dx="472" dy="772" grid="1" gridSize="10" guides="1" tooltips="1" connect="1" arrows="1" fold="1" page="1" pageScale="1" pageWidth="827" pageHeight="1169" math="0" shadow="0">
      <root>
        <mxCell id="WIyWlLk6GJQsqaUBKTNV-0" />
        <mxCell id="WIyWlLk6GJQsqaUBKTNV-1" parent="WIyWlLk6GJQsqaUBKTNV-0" />
        <mxCell id="RFbRQSBq0srde8iPi9Bh-6" style="edgeStyle=orthogonalEdgeStyle;rounded=0;orthogonalLoop=1;jettySize=auto;html=1;entryX=0.5;entryY=0;entryDx=0;entryDy=0;" edge="1" parent="WIyWlLk6GJQsqaUBKTNV-1" source="RFbRQSBq0srde8iPi9Bh-0" target="RFbRQSBq0srde8iPi9Bh-2">
          <mxGeometry relative="1" as="geometry" />
        </mxCell>
        <mxCell id="RFbRQSBq0srde8iPi9Bh-7" style="edgeStyle=orthogonalEdgeStyle;rounded=0;orthogonalLoop=1;jettySize=auto;html=1;" edge="1" parent="WIyWlLk6GJQsqaUBKTNV-1" source="RFbRQSBq0srde8iPi9Bh-0" target="RFbRQSBq0srde8iPi9Bh-1">
          <mxGeometry relative="1" as="geometry" />
        </mxCell>
        <mxCell id="RFbRQSBq0srde8iPi9Bh-0" value="Hecho" style="rounded=1;whiteSpace=wrap;html=1;" vertex="1" parent="WIyWlLk6GJQsqaUBKTNV-1">
          <mxGeometry x="180" y="90" width="120" height="60" as="geometry" />
        </mxCell>
        <mxCell id="RFbRQSBq0srde8iPi9Bh-1" value="Titulo" style="rounded=1;whiteSpace=wrap;html=1;" vertex="1" parent="WIyWlLk6GJQsqaUBKTNV-1">
          <mxGeometry x="60" y="210" width="120" height="60" as="geometry" />
        </mxCell>
        <mxCell id="RFbRQSBq0srde8iPi9Bh-8" style="edgeStyle=orthogonalEdgeStyle;rounded=0;orthogonalLoop=1;jettySize=auto;html=1;" edge="1" parent="WIyWlLk6GJQsqaUBKTNV-1" source="RFbRQSBq0srde8iPi9Bh-2" target="RFbRQSBq0srde8iPi9Bh-5">
          <mxGeometry relative="1" as="geometry" />
        </mxCell>
        <mxCell id="RFbRQSBq0srde8iPi9Bh-9" style="edgeStyle=orthogonalEdgeStyle;rounded=0;orthogonalLoop=1;jettySize=auto;html=1;" edge="1" parent="WIyWlLk6GJQsqaUBKTNV-1" source="RFbRQSBq0srde8iPi9Bh-2" target="RFbRQSBq0srde8iPi9Bh-4">
          <mxGeometry relative="1" as="geometry" />
        </mxCell>
        <mxCell id="RFbRQSBq0srde8iPi9Bh-10" style="edgeStyle=orthogonalEdgeStyle;rounded=0;orthogonalLoop=1;jettySize=auto;html=1;" edge="1" parent="WIyWlLk6GJQsqaUBKTNV-1" source="RFbRQSBq0srde8iPi9Bh-2" target="RFbRQSBq0srde8iPi9Bh-3">
          <mxGeometry relative="1" as="geometry" />
        </mxCell>
        <mxCell id="RFbRQSBq0srde8iPi9Bh-2" value="Fecha" style="rounded=1;whiteSpace=wrap;html=1;" vertex="1" parent="WIyWlLk6GJQsqaUBKTNV-1">
          <mxGeometry x="300" y="210" width="120" height="60" as="geometry" />
        </mxCell>
        <mxCell id="RFbRQSBq0srde8iPi9Bh-3" value="AÃ±o" style="rounded=1;whiteSpace=wrap;html=1;" vertex="1" parent="WIyWlLk6GJQsqaUBKTNV-1">
          <mxGeometry x="430" y="330" width="120" height="60" as="geometry" />
        </mxCell>
        <mxCell id="RFbRQSBq0srde8iPi9Bh-4" value="Mes" style="rounded=1;whiteSpace=wrap;html=1;" vertex="1" parent="WIyWlLk6GJQsqaUBKTNV-1">
          <mxGeometry x="300" y="330" width="120" height="60" as="geometry" />
        </mxCell>
        <mxCell id="RFbRQSBq0srde8iPi9Bh-5" value="Dia" style="rounded=1;whiteSpace=wrap;html=1;" vertex="1" parent="WIyWlLk6GJQsqaUBKTNV-1">
          <mxGeometry x="170" y="330" width="120" height="60" as="geometry" />
        </mxCell>
      </root>
    </mxGraphModel>
  </diagram>
</mxfile>
